
<global>
amp_veltrack=0
ampeg_attack=0.01
ampeg_release=0.35
</global>

<group>
group_label=Group_0-42
xf_cccurve=gain
xfin_hicc1=42
xfout_hicc1=84
xfout_locc1=43

<region>
hivel=127
key=A#3
loop_end=196359
loop_start=57230
loop_xfade=13987
lovel=0
offset=13196
sample=Vibraphone_HardMallets_Tremolo_P_A#3.opus
volume=15
</region>

<region>
hivel=127
key=A#4
loop_end=220711
loop_start=46960
loop_xfade=13854
lovel=0
offset=16577
sample=Vibraphone_HardMallets_Tremolo_P_A#4.opus
volume=15
</region>

<region>
hivel=127
key=A#5
loop_end=243738
loop_start=76928
loop_xfade=9458
lovel=0
offset=39524
sample=Vibraphone_HardMallets_Tremolo_P_A#5.opus
volume=15
</region>

<region>
hivel=127
key=A3
loop_end=266796
loop_start=44687
loop_xfade=9185
lovel=0
offset=24967
sample=Vibraphone_HardMallets_Tremolo_P_A3.opus
volume=15
</region>

<region>
hivel=127
key=A4
loop_end=216170
loop_start=70654
loop_xfade=9812
lovel=0
offset=30658
sample=Vibraphone_HardMallets_Tremolo_P_A4.opus
volume=15
</region>

<region>
hivel=127
key=A5
loop_end=233902
loop_start=64075
loop_xfade=10378
lovel=0
offset=41361
sample=Vibraphone_HardMallets_Tremolo_P_A5.opus
volume=15
</region>

<region>
hivel=127
key=B3
loop_end=221482
loop_start=27512
loop_xfade=6701
lovel=0
offset=16038
sample=Vibraphone_HardMallets_Tremolo_P_B3.opus
volume=15
</region>

<region>
hivel=127
key=B4
loop_end=234366
loop_start=76391
loop_xfade=14103
lovel=0
offset=10882
sample=Vibraphone_HardMallets_Tremolo_P_B4.opus
volume=15
</region>

<region>
hivel=127
key=B5
loop_end=248976
loop_start=51407
loop_xfade=10719
lovel=0
offset=16497
sample=Vibraphone_HardMallets_Tremolo_P_B5.opus
volume=15
</region>

<region>
hivel=127
key=C#4
loop_end=224297
loop_start=45064
loop_xfade=4369
lovel=0
offset=21710
sample=Vibraphone_HardMallets_Tremolo_P_C#4.opus
volume=15
</region>

<region>
hivel=127
key=C#5
loop_end=215816
loop_start=57754
loop_xfade=11414
lovel=0
offset=9813
sample=Vibraphone_HardMallets_Tremolo_P_C#5.opus
volume=15
</region>

<region>
hivel=127
key=C#6
loop_end=170394
loop_start=44488
loop_xfade=12438
lovel=0
offset=4868
sample=Vibraphone_HardMallets_Tremolo_P_C#6.opus
volume=15
</region>

<region>
hikey=C4
hivel=127
lokey=C4
loop_end=236421
loop_start=51545
loop_xfade=6984
lovel=0
offset=25204
sample=Vibraphone_HardMallets_Tremolo_P_C4.opus
volume=15
</region>

<region>
hivel=127
key=C5
loop_end=192906
loop_start=58050
loop_xfade=11307
lovel=0
offset=9241
sample=Vibraphone_HardMallets_Tremolo_P_C5.opus
volume=15
</region>

<region>
hivel=127
key=C6
loop_end=213579
loop_start=27157
loop_xfade=10030
lovel=0
offset=11580
sample=Vibraphone_HardMallets_Tremolo_P_C6.opus
volume=15
</region>

<region>
hivel=127
key=D#4
loop_end=197244
loop_start=51760
loop_xfade=8431
lovel=0
offset=3905
sample=Vibraphone_HardMallets_Tremolo_P_D#4.opus
volume=15
</region>

<region>
hivel=127
key=D#5
loop_end=196001
loop_start=51915
loop_xfade=15420
lovel=0
offset=31372
sample=Vibraphone_HardMallets_Tremolo_P_D#5.opus
volume=15
</region>

<region>
hivel=127
key=D#6
loop_end=254321
loop_start=39365
loop_xfade=14591
lovel=0
offset=4281
sample=Vibraphone_HardMallets_Tremolo_P_D#6.opus
volume=15
</region>

<region>
hivel=127
key=D4
loop_end=218806
loop_start=46175
loop_xfade=8545
lovel=0
offset=15689
sample=Vibraphone_HardMallets_Tremolo_P_D4.opus
volume=15
</region>

<region>
hivel=127
key=D5
loop_end=213859
loop_start=60458
loop_xfade=16996
lovel=0
offset=12390
sample=Vibraphone_HardMallets_Tremolo_P_D5.opus
volume=15
</region>

<region>
hivel=127
key=D6
loop_end=240065
loop_start=45662
loop_xfade=17072
lovel=0
offset=4141
sample=Vibraphone_HardMallets_Tremolo_P_D6.opus
volume=15
</region>

<region>
hivel=127
key=E4
loop_end=207392
loop_start=51476
loop_xfade=3937
lovel=0
offset=30008
sample=Vibraphone_HardMallets_Tremolo_P_E4.opus
volume=15
</region>

<region>
hivel=127
key=E5
loop_end=213512
loop_start=48956
loop_xfade=10556
lovel=0
offset=13097
sample=Vibraphone_HardMallets_Tremolo_P_E5.opus
volume=15
</region>

<region>
hivel=127
key=E6
loop_end=206512
loop_start=33826
loop_xfade=11533
lovel=0
offset=5268
sample=Vibraphone_HardMallets_Tremolo_P_E6.opus
volume=15
</region>

<region>
hivel=127
key=F#3
loop_end=210360
loop_start=68553
loop_xfade=13893
lovel=0
offset=21541
sample=Vibraphone_HardMallets_Tremolo_P_F#3.opus
volume=15
</region>

<region>
hivel=127
key=F#4
loop_end=221692
loop_start=49937
loop_xfade=13179
lovel=0
offset=13094
sample=Vibraphone_HardMallets_Tremolo_P_F#4.opus
volume=15
</region>

<region>
hivel=127
key=F#5
loop_end=213268
loop_start=41643
loop_xfade=8908
lovel=0
offset=10436
sample=Vibraphone_HardMallets_Tremolo_P_F#5.opus
volume=15
</region>

<region>
hivel=127
key=F3
loop_end=225509
loop_start=62871
loop_xfade=16230
lovel=0
offset=20163
sample=Vibraphone_HardMallets_Tremolo_P_F3.opus
volume=15
</region>

<region>
hivel=127
key=F4
loop_end=232345
loop_start=32668
loop_xfade=8765
lovel=0
offset=20474
sample=Vibraphone_HardMallets_Tremolo_P_F4.opus
volume=15
</region>

<region>
hivel=127
key=F5
loop_end=228107
loop_start=45614
loop_xfade=12991
lovel=0
offset=10678
sample=Vibraphone_HardMallets_Tremolo_P_F5.opus
volume=15
</region>

<region>
hivel=127
key=F6
loop_end=220778
loop_start=38992
loop_xfade=11936
lovel=0
offset=6668
sample=Vibraphone_HardMallets_Tremolo_P_F6.opus
volume=15
</region>

<region>
hivel=127
key=G#3
loop_end=217559
loop_start=53222
loop_xfade=12526
lovel=0
offset=19532
sample=Vibraphone_HardMallets_Tremolo_P_G#3.opus
volume=15
</region>

<region>
hivel=127
key=G#4
loop_end=198010
loop_start=63127
loop_xfade=10213
lovel=0
offset=25789
sample=Vibraphone_HardMallets_Tremolo_P_G#4.opus
volume=15
</region>

<region>
hivel=127
key=G#5
loop_end=204603
loop_start=39368
loop_xfade=10354
lovel=0
offset=11727
sample=Vibraphone_HardMallets_Tremolo_P_G#5.opus
volume=15
</region>

<region>
hivel=127
key=G3
loop_end=248067
loop_start=57876
loop_xfade=12783
lovel=0
offset=17633
sample=Vibraphone_HardMallets_Tremolo_P_G3.opus
volume=15
</region>

<region>
hivel=127
key=G4
loop_end=188375
loop_start=59700
loop_xfade=5785
lovel=0
offset=14937
sample=Vibraphone_HardMallets_Tremolo_P_G4.opus
volume=15
</region>

<region>
hivel=127
key=G5
loop_end=221520
loop_start=50015
loop_xfade=14515
lovel=0
offset=22182
sample=Vibraphone_HardMallets_Tremolo_P_G5.opus
volume=15
</region>
</group>

<group>
group_label=Group_43-86
xf_cccurve=gain
xfin_hicc1=84
xfin_locc1=43
xfout_hicc1=127
xfout_locc1=85

<region>
hivel=127
key=A#3
loop_end=198192
loop_mode=loop_continuous
loop_start=81003
loop_xfade=27612
lovel=0
offset=207
sample=Vibraphone_HardMallets_Tremolo_MF_A#3.opus
</region>

<region>
hivel=127
key=A#4
loop_end=180297
loop_mode=loop_continuous
loop_start=50889
loop_xfade=26924
lovel=0
offset=406
sample=Vibraphone_HardMallets_Tremolo_MF_A#4.opus
</region>

<region>
hivel=127
key=A#5
loop_end=212485
loop_mode=loop_continuous
loop_start=68482
loop_xfade=27493
lovel=0
offset=855
sample=Vibraphone_HardMallets_Tremolo_MF_A#5.opus
</region>

<region>
hivel=127
key=A3
loop_end=215369
loop_mode=loop_continuous
loop_start=70540
loop_xfade=26353
lovel=0
offset=3935
sample=Vibraphone_HardMallets_Tremolo_MF_A3.opus
</region>

<region>
hivel=127
key=A4
loop_end=188177
loop_mode=loop_continuous
loop_start=56215
loop_xfade=21190
lovel=0
offset=8147
sample=Vibraphone_HardMallets_Tremolo_MF_A4.opus
</region>

<region>
hivel=127
key=A5
loop_end=199009
loop_mode=loop_continuous
loop_start=66455
loop_xfade=27514
lovel=0
offset=4255
sample=Vibraphone_HardMallets_Tremolo_MF_A5.opus
</region>

<region>
hivel=127
key=B3
loop_end=214088
loop_mode=loop_continuous
loop_start=69100
loop_xfade=27484
lovel=0
offset=504
sample=Vibraphone_HardMallets_Tremolo_MF_B3.opus
</region>

<region>
hivel=127
key=B4
loop_end=208869
loop_mode=loop_continuous
loop_start=80644
loop_xfade=16429
lovel=0
offset=2711
sample=Vibraphone_HardMallets_Tremolo_MF_B4.opus
</region>

<region>
hivel=127
key=B5
loop_end=181515
loop_mode=loop_continuous
loop_start=57366
loop_xfade=27181
lovel=0
offset=14603
sample=Vibraphone_HardMallets_Tremolo_MF_B5.opus
</region>

<region>
hivel=127
key=C#4
loop_end=193626
loop_mode=loop_continuous
loop_start=74489
loop_xfade=27564
lovel=0
offset=4116
sample=Vibraphone_HardMallets_Tremolo_MF_C#4.opus
</region>

<region>
hivel=127
key=C#5
loop_end=201073
loop_mode=loop_continuous
loop_start=67596
loop_xfade=25722
lovel=0
offset=733
sample=Vibraphone_HardMallets_Tremolo_MF_C#5.opus
</region>

<region>
hivel=127
key=C#6
loop_end=188261
loop_mode=loop_continuous
loop_start=58841
loop_xfade=22225
lovel=0
offset=662
sample=Vibraphone_HardMallets_Tremolo_MF_C#6.opus
</region>

<region>
hikey=C4
hivel=127
lokey=C4
loop_end=211274
loop_mode=loop_continuous
loop_start=56558
loop_xfade=22077
lovel=0
offset=482
sample=Vibraphone_HardMallets_Tremolo_MF_C4.opus
</region>

<region>
hivel=127
key=C5
loop_end=183020
loop_mode=loop_continuous
loop_start=68157
loop_xfade=27544
lovel=0
offset=1996
sample=Vibraphone_HardMallets_Tremolo_MF_C5.opus
</region>

<region>
hivel=127
key=C6
loop_end=204036
loop_mode=loop_continuous
loop_start=51319
loop_xfade=23625
lovel=0
offset=1001
sample=Vibraphone_HardMallets_Tremolo_MF_C6.opus
</region>

<region>
hivel=127
key=D#4
loop_end=218777
loop_mode=loop_continuous
loop_start=60717
loop_xfade=22600
lovel=0
offset=5684
sample=Vibraphone_HardMallets_Tremolo_MF_D#4.opus
</region>

<region>
hivel=127
key=D#5
loop_end=192622
loop_mode=loop_continuous
loop_start=62013
loop_xfade=23318
lovel=0
offset=7138
sample=Vibraphone_HardMallets_Tremolo_MF_D#5.opus
</region>

<region>
hivel=127
key=D#6
loop_end=192946
loop_mode=loop_continuous
loop_start=68504
loop_xfade=13956
lovel=0
offset=570
sample=Vibraphone_HardMallets_Tremolo_MF_D#6.opus
</region>

<region>
hivel=127
key=D4
loop_end=183082
loop_mode=loop_continuous
loop_start=41976
loop_xfade=17480
lovel=0
offset=4417
sample=Vibraphone_HardMallets_Tremolo_MF_D4.opus
</region>

<region>
hivel=127
key=D5
loop_end=195603
loop_mode=loop_continuous
loop_start=60862
loop_xfade=22667
lovel=0
offset=1135
sample=Vibraphone_HardMallets_Tremolo_MF_D5.opus
</region>

<region>
hivel=127
key=D6
loop_end=208537
loop_mode=loop_continuous
loop_start=61374
loop_xfade=26023
lovel=0
offset=3831
sample=Vibraphone_HardMallets_Tremolo_MF_D6.opus
</region>

<region>
hivel=127
key=E4
loop_end=204242
loop_mode=loop_continuous
loop_start=58444
loop_xfade=18575
lovel=0
offset=3079
sample=Vibraphone_HardMallets_Tremolo_MF_E4.opus
</region>

<region>
hivel=127
key=E5
loop_end=185721
loop_mode=loop_continuous
loop_start=51163
loop_xfade=26900
lovel=0
offset=15661
sample=Vibraphone_HardMallets_Tremolo_MF_E5.opus
</region>

<region>
hivel=127
key=E6
loop_end=178046
loop_mode=loop_continuous
loop_start=54140
loop_xfade=27612
lovel=0
offset=5192
sample=Vibraphone_HardMallets_Tremolo_MF_E6.opus
</region>

<region>
hivel=127
key=F#3
loop_end=195323
loop_mode=loop_continuous
loop_start=43091
loop_xfade=25703
lovel=0
offset=498
sample=Vibraphone_HardMallets_Tremolo_MF_F#3.opus
</region>

<region>
hivel=127
key=F#4
loop_end=191656
loop_mode=loop_continuous
loop_start=53173
loop_xfade=20055
lovel=0
offset=8203
sample=Vibraphone_HardMallets_Tremolo_MF_F#4.opus
</region>

<region>
hivel=127
key=F#5
loop_end=194678
loop_mode=loop_continuous
loop_start=60096
loop_xfade=25077
lovel=0
offset=684
sample=Vibraphone_HardMallets_Tremolo_MF_F#5.opus
</region>

<region>
hivel=127
key=F3
loop_end=172402
loop_mode=loop_continuous
loop_start=50488
loop_xfade=25793
lovel=0
offset=3960
sample=Vibraphone_HardMallets_Tremolo_MF_F3.opus
</region>

<region>
hivel=127
key=F4
loop_end=223223
loop_mode=loop_continuous
loop_start=68092
loop_xfade=27612
lovel=0
sample=Vibraphone_HardMallets_Tremolo_MF_F4.opus
</region>

<region>
hivel=127
key=F5
loop_end=152143
loop_mode=loop_continuous
loop_start=44066
loop_xfade=16648
lovel=0
offset=7800
sample=Vibraphone_HardMallets_Tremolo_MF_F5.opus
</region>

<region>
hivel=127
key=F6
loop_end=194929
loop_mode=loop_continuous
loop_start=68972
loop_xfade=27589
lovel=0
offset=5942
sample=Vibraphone_HardMallets_Tremolo_MF_F6.opus
</region>

<region>
hivel=127
key=G#3
loop_end=210117
loop_mode=loop_continuous
loop_start=60838
loop_xfade=25797
lovel=0
offset=1324
sample=Vibraphone_HardMallets_Tremolo_MF_G#3.opus
</region>

<region>
hivel=127
key=G#4
loop_end=196550
loop_mode=loop_continuous
loop_start=46277
loop_xfade=22648
lovel=0
offset=1967
sample=Vibraphone_HardMallets_Tremolo_MF_G#4.opus
</region>

<region>
hivel=127
key=G#5
loop_end=228747
loop_mode=loop_continuous
loop_start=87480
loop_xfade=17822
lovel=0
offset=8234
sample=Vibraphone_HardMallets_Tremolo_MF_G#5.opus
</region>

<region>
hivel=127
key=G3
loop_end=191559
loop_mode=loop_continuous
loop_start=73170
loop_xfade=25604
lovel=0
offset=3598
sample=Vibraphone_HardMallets_Tremolo_MF_G3.opus
</region>

<region>
hivel=127
key=G4
loop_end=202093
loop_mode=loop_continuous
loop_start=54813
loop_xfade=20058
lovel=0
offset=1084
sample=Vibraphone_HardMallets_Tremolo_MF_G4.opus
</region>

<region>
hivel=127
key=G5
loop_end=187345
loop_mode=loop_continuous
loop_start=61997
loop_xfade=27579
lovel=0
offset=493
sample=Vibraphone_HardMallets_Tremolo_MF_G5.opus
</region>
</group>

<group>
group_label=Group_87-127
xf_cccurve=gain
xfin_hicc1=127
xfin_locc1=85
xfout_hicc1=127
xfout_locc1=127

<region>
hivel=127
key=A#3
loop_end=188084
loop_mode=loop_continuous
loop_start=47122
loop_xfade=14794
lovel=0
offset=491
sample=Vibraphone_HardMallets_Tremolo_F_A#3.opus
</region>

<region>
hivel=127
key=A#4
loop_end=289757
loop_mode=loop_continuous
loop_start=56481
loop_xfade=22792
lovel=0
offset=489
sample=Vibraphone_HardMallets_Tremolo_F_A#4.opus
</region>

<region>
hivel=127
key=A#5
loop_end=182931
loop_mode=loop_continuous
loop_start=48673
loop_xfade=25355
lovel=0
offset=3698
sample=Vibraphone_HardMallets_Tremolo_F_A#5.opus
</region>

<region>
hivel=127
key=A3
loop_end=209048
loop_mode=loop_continuous
loop_start=60709
loop_xfade=25613
lovel=0
offset=502
sample=Vibraphone_HardMallets_Tremolo_F_A3.opus
</region>

<region>
hivel=127
key=A4
loop_end=212207
loop_mode=loop_continuous
loop_start=109782
loop_xfade=22365
lovel=0
offset=2000
sample=Vibraphone_HardMallets_Tremolo_F_A4.opus
</region>

<region>
hivel=127
key=A5
loop_end=212923
loop_mode=loop_continuous
loop_start=52226
loop_xfade=27566
lovel=0
offset=495
sample=Vibraphone_HardMallets_Tremolo_F_A5.opus
</region>

<region>
hivel=127
key=B3
loop_end=190284
loop_mode=loop_continuous
loop_start=61927
loop_xfade=21692
lovel=0
offset=510
sample=Vibraphone_HardMallets_Tremolo_F_B3.opus
</region>

<region>
hivel=127
key=B4
loop_end=180269
loop_mode=loop_continuous
loop_start=88022
loop_xfade=17932
lovel=0
offset=1182
sample=Vibraphone_HardMallets_Tremolo_F_B4.opus
</region>

<region>
hivel=127
key=B5
loop_end=176225
loop_mode=loop_continuous
loop_start=49384
loop_xfade=16777
lovel=0
offset=7217
sample=Vibraphone_HardMallets_Tremolo_F_B5.opus
</region>

<region>
hivel=127
key=C#4
loop_end=195803
loop_mode=loop_continuous
loop_start=51037
loop_xfade=27610
lovel=0
offset=493
sample=Vibraphone_HardMallets_Tremolo_F_C#4.opus
</region>

<region>
hivel=127
key=C#5
loop_end=217236
loop_mode=loop_continuous
loop_start=50945
loop_xfade=20057
lovel=0
offset=489
sample=Vibraphone_HardMallets_Tremolo_F_C#5.opus
</region>

<region>
hivel=127
key=C#6
loop_end=205817
loop_mode=loop_continuous
loop_start=64583
loop_xfade=19390
lovel=0
offset=576
sample=Vibraphone_HardMallets_Tremolo_F_C#6.opus
</region>

<region>
hikey=C4
hivel=127
lokey=C4
loop_end=217406
loop_mode=loop_continuous
loop_start=59036
loop_xfade=17101
lovel=0
offset=495
sample=Vibraphone_HardMallets_Tremolo_F_C4.opus
</region>

<region>
hivel=127
key=C5
loop_end=211768
loop_mode=loop_continuous
loop_start=56066
loop_xfade=20692
lovel=0
offset=489
sample=Vibraphone_HardMallets_Tremolo_F_C5.opus
</region>

<region>
hivel=127
key=C6
loop_end=214591
loop_mode=loop_continuous
loop_start=65329
loop_xfade=17307
lovel=0
offset=492
sample=Vibraphone_HardMallets_Tremolo_F_C6.opus
</region>

<region>
hivel=127
key=D#4
loop_end=218174
loop_mode=loop_continuous
loop_start=73685
loop_xfade=18780
lovel=0
offset=489
sample=Vibraphone_HardMallets_Tremolo_F_D#4.opus
</region>

<region>
hivel=127
key=D#5
loop_end=226919
loop_mode=loop_continuous
loop_start=41163
loop_xfade=20706
lovel=0
offset=492
sample=Vibraphone_HardMallets_Tremolo_F_D#5.opus
</region>

<region>
hivel=127
key=D#6
loop_end=204798
loop_mode=loop_continuous
loop_start=54511
loop_xfade=14574
lovel=0
offset=488
sample=Vibraphone_HardMallets_Tremolo_F_D#6.opus
</region>

<region>
hivel=127
key=D4
loop_end=224271
loop_mode=loop_continuous
loop_start=86591
loop_xfade=17641
lovel=0
offset=491
sample=Vibraphone_HardMallets_Tremolo_F_D4.opus
</region>

<region>
hivel=127
key=D5
loop_end=213622
loop_mode=loop_continuous
loop_start=49078
loop_xfade=19461
lovel=0
offset=493
sample=Vibraphone_HardMallets_Tremolo_F_D5.opus
</region>

<region>
hivel=127
key=D6
loop_end=206305
loop_mode=loop_continuous
loop_start=72888
loop_xfade=27475
lovel=0
offset=491
sample=Vibraphone_HardMallets_Tremolo_F_D6.opus
</region>

<region>
hivel=127
key=E4
loop_end=190454
loop_mode=loop_continuous
loop_start=45144
loop_xfade=14981
lovel=0
offset=494
sample=Vibraphone_HardMallets_Tremolo_F_E4.opus
</region>

<region>
hivel=127
key=E5
loop_end=196340
loop_mode=loop_continuous
loop_start=83163
loop_xfade=16943
lovel=0
offset=840
sample=Vibraphone_HardMallets_Tremolo_F_E5.opus
</region>

<region>
hivel=127
key=E6
loop_end=184319
loop_mode=loop_continuous
loop_start=57250
loop_xfade=18761
lovel=0
sample=Vibraphone_HardMallets_Tremolo_F_E6.opus
</region>

<region>
hivel=127
key=F#3
loop_end=189852
loop_mode=loop_continuous
loop_start=81977
loop_xfade=16701
lovel=0
sample=Vibraphone_HardMallets_Tremolo_F_F#3.opus
</region>

<region>
hivel=127
key=F#4
loop_end=202523
loop_mode=loop_continuous
loop_start=62277
loop_xfade=21293
lovel=0
offset=3042
sample=Vibraphone_HardMallets_Tremolo_F_F#4.opus
</region>

<region>
hivel=127
key=F#5
loop_end=211594
loop_mode=loop_continuous
loop_start=48937
loop_xfade=22357
lovel=0
offset=619
sample=Vibraphone_HardMallets_Tremolo_F_F#5.opus
</region>

<region>
hivel=127
key=F3
loop_end=199752
loop_mode=loop_continuous
loop_start=77124
loop_xfade=15712
lovel=0
offset=402
sample=Vibraphone_HardMallets_Tremolo_F_F3.opus
</region>

<region>
hivel=127
key=F4
loop_end=190468
loop_mode=loop_continuous
loop_start=57267
loop_xfade=15532
lovel=0
offset=5959
sample=Vibraphone_HardMallets_Tremolo_F_F4.opus
</region>

<region>
hivel=127
key=F5
loop_end=199742
loop_mode=loop_continuous
loop_start=44900
loop_xfade=19372
lovel=0
offset=909
sample=Vibraphone_HardMallets_Tremolo_F_F5.opus
</region>

<region>
hivel=127
key=F6
loop_end=208733
loop_mode=loop_continuous
loop_start=55606
loop_xfade=27372
lovel=0
offset=473
sample=Vibraphone_HardMallets_Tremolo_F_F6.opus
</region>

<region>
hivel=127
key=G#3
loop_end=197199
loop_mode=loop_continuous
loop_start=78191
loop_xfade=15930
lovel=0
offset=492
sample=Vibraphone_HardMallets_Tremolo_F_G#3.opus
</region>

<region>
hivel=127
key=G#4
loop_end=208017
loop_mode=loop_continuous
loop_start=39839
loop_xfade=17386
lovel=0
offset=473
sample=Vibraphone_HardMallets_Tremolo_F_G#4.opus
</region>

<region>
hivel=127
key=G#5
loop_end=198639
loop_mode=loop_continuous
loop_start=46221
loop_xfade=19609
lovel=0
offset=491
sample=Vibraphone_HardMallets_Tremolo_F_G#5.opus
</region>

<region>
hivel=127
key=G3
loop_end=187114
loop_mode=loop_continuous
loop_start=76898
loop_xfade=15666
lovel=0
offset=500
sample=Vibraphone_HardMallets_Tremolo_F_G3.opus
</region>

<region>
hivel=127
key=G4
loop_end=187819
loop_mode=loop_continuous
loop_start=60143
loop_xfade=17274
lovel=0
offset=1237
sample=Vibraphone_HardMallets_Tremolo_F_G4.opus
</region>

<region>
hivel=127
key=G5
loop_end=207084
loop_mode=loop_continuous
loop_start=56294
loop_xfade=27476
lovel=0
offset=3179
sample=Vibraphone_HardMallets_Tremolo_F_G5.opus
</region>
</group>

<group>
ampeg_release=1.5
group_label=RR1
seq_length=2
seq_position=1
trigger=release

<region>
hivel=127
key=A#3
lovel=87
offset=3445
sample=Vibraphone_HardMallets_Staccato_F_A#3_RR1.opus
</region>

<region>
hivel=127
key=A#4
lovel=87
offset=491
sample=Vibraphone_HardMallets_Staccato_F_A#4_RR1.opus
</region>

<region>
hivel=127
key=A#5
lovel=87
offset=4053
sample=Vibraphone_HardMallets_Staccato_F_A#5_RR1.opus
</region>

<region>
hivel=127
key=A3
lovel=87
offset=499
sample=Vibraphone_HardMallets_Staccato_F_A3_RR1.opus
</region>

<region>
hivel=127
key=A4
lovel=87
offset=488
sample=Vibraphone_HardMallets_Staccato_F_A4_RR1.opus
</region>

<region>
hivel=127
key=A5
lovel=87
offset=472
sample=Vibraphone_HardMallets_Staccato_F_A5_RR1.opus
</region>

<region>
hivel=127
key=B3
lovel=87
offset=776
sample=Vibraphone_HardMallets_Staccato_F_B3_RR1.opus
</region>

<region>
hivel=127
key=B4
lovel=87
offset=491
sample=Vibraphone_HardMallets_Staccato_F_B4_RR1.opus
</region>

<region>
hivel=127
key=B5
lovel=87
offset=474
sample=Vibraphone_HardMallets_Staccato_F_B5_RR1.opus
</region>

<region>
hivel=127
key=C#4
lovel=87
offset=498
sample=Vibraphone_HardMallets_Staccato_F_C#4_RR1.opus
</region>

<region>
hivel=127
key=C#5
lovel=87
offset=475
sample=Vibraphone_HardMallets_Staccato_F_C#5_RR1.opus
</region>

<region>
hivel=127
key=C#6
lovel=87
offset=476
sample=Vibraphone_HardMallets_Staccato_F_C#6_RR1.opus
</region>

<region>
hikey=C4
hivel=127
lokey=C4
lovel=87
offset=499
sample=Vibraphone_HardMallets_Staccato_F_C4_RR1.opus
</region>

<region>
hivel=127
key=C5
lovel=87
offset=475
sample=Vibraphone_HardMallets_Staccato_F_C5_RR1.opus
</region>

<region>
hivel=127
key=C6
lovel=87
offset=474
sample=Vibraphone_HardMallets_Staccato_F_C6_RR1.opus
</region>

<region>
hivel=127
key=D#4
lovel=87
offset=489
sample=Vibraphone_HardMallets_Staccato_F_D#4_RR1.opus
</region>

<region>
hivel=127
key=D#5
lovel=87
offset=491
sample=Vibraphone_HardMallets_Staccato_F_D#5_RR1.opus
</region>

<region>
hivel=127
key=D#6
lovel=87
offset=488
sample=Vibraphone_HardMallets_Staccato_F_D#6_RR1.opus
</region>

<region>
hivel=127
key=D4
lovel=87
offset=494
sample=Vibraphone_HardMallets_Staccato_F_D4_RR1.opus
</region>

<region>
hivel=127
key=D5
lovel=87
offset=486
sample=Vibraphone_HardMallets_Staccato_F_D5_RR1.opus
</region>

<region>
hivel=127
key=D6
lovel=87
offset=472
sample=Vibraphone_HardMallets_Staccato_F_D6_RR1.opus
</region>

<region>
hivel=127
key=E4
lovel=87
offset=489
sample=Vibraphone_HardMallets_Staccato_F_E4_RR1.opus
</region>

<region>
hivel=127
key=E5
lovel=87
offset=487
sample=Vibraphone_HardMallets_Staccato_F_E5_RR1.opus
</region>

<region>
hivel=127
key=E6
lovel=87
offset=474
sample=Vibraphone_HardMallets_Staccato_F_E6_RR1.opus
</region>

<region>
hivel=127
key=F#3
lovel=87
offset=488
sample=Vibraphone_HardMallets_Staccato_F_F#3_RR1.opus
</region>

<region>
hivel=127
key=F#4
lovel=87
offset=490
sample=Vibraphone_HardMallets_Staccato_F_F#4_RR1.opus
</region>

<region>
hivel=127
key=F#5
lovel=87
offset=472
sample=Vibraphone_HardMallets_Staccato_F_F#5_RR1.opus
</region>

<region>
hivel=127
key=F3
lovel=87
offset=487
sample=Vibraphone_HardMallets_Staccato_F_F3_RR1.opus
</region>

<region>
hivel=127
key=F4
lovel=87
offset=504
sample=Vibraphone_HardMallets_Staccato_F_F4_RR1.opus
</region>

<region>
hivel=127
key=F5
lovel=87
offset=488
sample=Vibraphone_HardMallets_Staccato_F_F5_RR1.opus
</region>

<region>
hivel=127
key=F6
lovel=87
offset=472
sample=Vibraphone_HardMallets_Staccato_F_F6_RR1.opus
</region>

<region>
hivel=127
key=G#3
lovel=87
offset=2621
sample=Vibraphone_HardMallets_Staccato_F_G#3_RR1.opus
</region>

<region>
hivel=127
key=G#4
lovel=87
offset=486
sample=Vibraphone_HardMallets_Staccato_F_G#4_RR1.opus
</region>

<region>
hivel=127
key=G#5
lovel=87
offset=474
sample=Vibraphone_HardMallets_Staccato_F_G#5_RR1.opus
</region>

<region>
hivel=127
key=G3
lovel=87
offset=485
sample=Vibraphone_HardMallets_Staccato_F_G3_RR1.opus
</region>

<region>
hivel=127
key=G4
lovel=87
offset=489
sample=Vibraphone_HardMallets_Staccato_F_G4_RR1.opus
</region>

<region>
hivel=127
key=G5
lovel=87
offset=475
sample=Vibraphone_HardMallets_Staccato_F_G5_RR1.opus
</region>

<region>
hivel=86
key=A#3
lovel=25
offset=3343
sample=Vibraphone_HardMallets_Staccato_MF_A#3_RR1.opus
volume=3
</region>

<region>
hivel=86
key=A#4
lovel=25
offset=4362
sample=Vibraphone_HardMallets_Staccato_MF_A#4_RR1.opus
volume=3
</region>

<region>
hivel=86
key=A#5
lovel=25
offset=1412
sample=Vibraphone_HardMallets_Staccato_MF_A#5_RR1.opus
volume=3
</region>

<region>
hivel=86
key=A3
lovel=25
offset=3563
sample=Vibraphone_HardMallets_Staccato_MF_A3_RR1.opus
volume=3
</region>

<region>
hivel=86
key=A4
lovel=25
offset=5486
sample=Vibraphone_HardMallets_Staccato_MF_A4_RR1.opus
volume=3
</region>

<region>
hivel=86
key=A5
lovel=25
offset=1832
sample=Vibraphone_HardMallets_Staccato_MF_A5_RR1.opus
volume=3
</region>

<region>
hivel=86
key=B3
lovel=25
offset=4227
sample=Vibraphone_HardMallets_Staccato_MF_B3_RR1.opus
volume=3
</region>

<region>
hivel=86
key=B4
lovel=25
offset=4580
sample=Vibraphone_HardMallets_Staccato_MF_B4_RR1.opus
volume=3
</region>

<region>
hivel=86
key=B5
lovel=25
offset=7199
sample=Vibraphone_HardMallets_Staccato_MF_B5_RR1.opus
volume=3
</region>

<region>
hivel=86
key=C#4
lovel=25
offset=6146
sample=Vibraphone_HardMallets_Staccato_MF_C#4_RR1.opus
volume=3
</region>

<region>
hivel=86
key=C#5
lovel=25
offset=496
sample=Vibraphone_HardMallets_Staccato_MF_C#5_RR1.opus
volume=3
</region>

<region>
hivel=86
key=C#6
lovel=25
offset=494
sample=Vibraphone_HardMallets_Staccato_MF_C#6_RR1.opus
volume=3
</region>

<region>
hikey=C4
hivel=86
lokey=C4
lovel=25
offset=1284
sample=Vibraphone_HardMallets_Staccato_MF_C4_RR1.opus
volume=3
</region>

<region>
hivel=86
key=C5
lovel=25
offset=3132
sample=Vibraphone_HardMallets_Staccato_MF_C5_RR1.opus
volume=3
</region>

<region>
hivel=86
key=C6
lovel=25
offset=4707
sample=Vibraphone_HardMallets_Staccato_MF_C6_RR1.opus
volume=3
</region>

<region>
hivel=86
key=D#4
lovel=25
offset=4136
sample=Vibraphone_HardMallets_Staccato_MF_D#4_RR1.opus
volume=3
</region>

<region>
hivel=86
key=D#5
lovel=25
offset=7484
sample=Vibraphone_HardMallets_Staccato_MF_D#5_RR1.opus
volume=3
</region>

<region>
hivel=86
key=D#6
lovel=25
offset=2015
sample=Vibraphone_HardMallets_Staccato_MF_D#6_RR1.opus
volume=3
</region>

<region>
hivel=86
key=D4
lovel=25
offset=4067
sample=Vibraphone_HardMallets_Staccato_MF_D4_RR1.opus
volume=3
</region>

<region>
hivel=86
key=D5
lovel=25
offset=3579
sample=Vibraphone_HardMallets_Staccato_MF_D5_RR1.opus
volume=3
</region>

<region>
hivel=86
key=D6
lovel=25
offset=5387
sample=Vibraphone_HardMallets_Staccato_MF_D6_RR1.opus
volume=3
</region>

<region>
hivel=86
key=E4
lovel=25
offset=3650
sample=Vibraphone_HardMallets_Staccato_MF_E4_RR1.opus
volume=3
</region>

<region>
hivel=86
key=E5
lovel=25
offset=502
sample=Vibraphone_HardMallets_Staccato_MF_E5_RR1.opus
volume=3
</region>

<region>
hivel=86
key=E6
lovel=25
offset=6024
sample=Vibraphone_HardMallets_Staccato_MF_E6_RR1.opus
volume=3
</region>

<region>
hivel=86
key=F#3
lovel=25
offset=4173
sample=Vibraphone_HardMallets_Staccato_MF_F#3_RR1.opus
volume=3
</region>

<region>
hivel=86
key=F#4
lovel=25
offset=1170
sample=Vibraphone_HardMallets_Staccato_MF_F#4_RR1.opus
volume=3
</region>

<region>
hivel=86
key=F#5
lovel=25
offset=2225
sample=Vibraphone_HardMallets_Staccato_MF_F#5_RR1.opus
volume=3
</region>

<region>
hivel=86
key=F3
lovel=25
offset=2489
sample=Vibraphone_HardMallets_Staccato_MF_F3_RR1.opus
volume=3
</region>

<region>
hivel=86
key=F4
lovel=25
offset=3095
sample=Vibraphone_HardMallets_Staccato_MF_F4_RR1.opus
volume=3
</region>

<region>
hivel=86
key=F5
lovel=25
offset=491
sample=Vibraphone_HardMallets_Staccato_MF_F5_RR1.opus
volume=3
</region>

<region>
hivel=86
key=F6
lovel=25
offset=5106
sample=Vibraphone_HardMallets_Staccato_MF_F6_RR1.opus
volume=3
</region>

<region>
hivel=86
key=G#3
lovel=25
offset=5454
sample=Vibraphone_HardMallets_Staccato_MF_G#3_RR1.opus
volume=3
</region>

<region>
hivel=86
key=G#4
lovel=25
offset=4854
sample=Vibraphone_HardMallets_Staccato_MF_G#4_RR1.opus
volume=3
</region>

<region>
hivel=86
key=G#5
lovel=25
offset=5840
sample=Vibraphone_HardMallets_Staccato_MF_G#5_RR1.opus
volume=3
</region>

<region>
hivel=86
key=G3
lovel=25
offset=4137
sample=Vibraphone_HardMallets_Staccato_MF_G3_RR1.opus
volume=3
</region>

<region>
hivel=86
key=G4
lovel=25
offset=1368
sample=Vibraphone_HardMallets_Staccato_MF_G4_RR1.opus
volume=3
</region>

<region>
hivel=86
key=G5
lovel=25
offset=1366
sample=Vibraphone_HardMallets_Staccato_MF_G5_RR1.opus
volume=3
</region>

<region>
hivel=24
key=A#3
lovel=0
offset=5644
sample=Vibraphone_HardMallets_Staccato_P_A#3_RR1.opus
volume=20
</region>

<region>
end=63498
hivel=24
key=A#4
lovel=0
offset=5642
sample=Vibraphone_HardMallets_Staccato_P_A#4_RR1.opus
volume=20
</region>

<region>
end=66763
hivel=24
key=A#5
lovel=0
offset=3787
sample=Vibraphone_HardMallets_Staccato_P_A#5_RR1.opus
volume=20
</region>

<region>
hivel=24
key=A3
lovel=0
offset=474
sample=Vibraphone_HardMallets_Staccato_P_A3_RR1.opus
volume=20
</region>

<region>
hivel=24
key=A4
lovel=0
offset=6316
sample=Vibraphone_HardMallets_Staccato_P_A4_RR1.opus
volume=20
</region>

<region>
end=66771
hivel=24
key=A5
lovel=0
offset=3283
sample=Vibraphone_HardMallets_Staccato_P_A5_RR1.opus
volume=20
</region>

<region>
hivel=24
key=B3
lovel=0
offset=11276
sample=Vibraphone_HardMallets_Staccato_P_B3_RR1.opus
volume=20
</region>

<region>
hivel=24
key=B4
lovel=0
offset=5150
sample=Vibraphone_HardMallets_Staccato_P_B4_RR1.opus
volume=20
</region>

<region>
hivel=24
key=B5
lovel=0
offset=2902
sample=Vibraphone_HardMallets_Staccato_P_B5_RR1.opus
volume=20
</region>

<region>
hivel=24
key=C#4
lovel=0
offset=9534
sample=Vibraphone_HardMallets_Staccato_P_C#4_RR1.opus
volume=20
</region>

<region>
hivel=24
key=C#5
lovel=0
offset=5017
sample=Vibraphone_HardMallets_Staccato_P_C#5_RR1.opus
volume=20
</region>

<region>
hivel=24
key=C#6
lovel=0
offset=3870
sample=Vibraphone_HardMallets_Staccato_P_C#6_RR1.opus
volume=20
</region>

<region>
hikey=C4
hivel=24
lokey=C4
lovel=0
offset=6586
sample=Vibraphone_HardMallets_Staccato_P_C4_RR1.opus
volume=20
</region>

<region>
hivel=24
key=C5
lovel=0
offset=6938
sample=Vibraphone_HardMallets_Staccato_P_C5_RR1.opus
volume=20
</region>

<region>
hivel=24
key=C6
lovel=0
offset=3771
sample=Vibraphone_HardMallets_Staccato_P_C6_RR1.opus
volume=20
</region>

<region>
hivel=24
key=D#4
lovel=0
offset=3087
sample=Vibraphone_HardMallets_Staccato_P_D#4_RR1.opus
volume=20
</region>

<region>
hivel=24
key=D#5
lovel=0
offset=5246
sample=Vibraphone_HardMallets_Staccato_P_D#5_RR1.opus
volume=20
</region>

<region>
hivel=24
key=D#6
lovel=0
offset=5821
sample=Vibraphone_HardMallets_Staccato_P_D#6_RR1.opus
volume=20
</region>

<region>
end=91295
hivel=24
key=D4
lovel=0
offset=3743
sample=Vibraphone_HardMallets_Staccato_P_D4_RR1.opus
volume=20
</region>

<region>
hivel=24
key=D5
lovel=0
offset=4732
sample=Vibraphone_HardMallets_Staccato_P_D5_RR1.opus
volume=20
</region>

<region>
end=68397
hivel=24
key=D6
lovel=0
offset=4909
sample=Vibraphone_HardMallets_Staccato_P_D6_RR1.opus
volume=20
</region>

<region>
hivel=24
key=E4
lovel=0
offset=3296
sample=Vibraphone_HardMallets_Staccato_P_E4_RR1.opus
volume=20
</region>

<region>
hivel=24
key=E5
lovel=0
offset=4721
sample=Vibraphone_HardMallets_Staccato_P_E5_RR1.opus
volume=20
</region>

<region>
hivel=24
key=E6
lovel=0
offset=2994
sample=Vibraphone_HardMallets_Staccato_P_E6_RR1.opus
volume=20
</region>

<region>
end=75636
hivel=24
key=F#3
lovel=0
offset=2420
sample=Vibraphone_HardMallets_Staccato_P_F#3_RR1.opus
volume=20
</region>

<region>
hivel=24
key=F#4
lovel=0
offset=4235
sample=Vibraphone_HardMallets_Staccato_P_F#4_RR1.opus
volume=20
</region>

<region>
hivel=24
key=F#5
lovel=0
offset=5185
sample=Vibraphone_HardMallets_Staccato_P_F#5_RR1.opus
volume=20
</region>

<region>
hivel=24
key=F3
lovel=0
offset=6757
sample=Vibraphone_HardMallets_Staccato_P_F3_RR1.opus
volume=20
</region>

<region>
hivel=24
key=F4
lovel=0
offset=4127
sample=Vibraphone_HardMallets_Staccato_P_F4_RR1.opus
volume=20
</region>

<region>
end=71056
hivel=24
key=F5
lovel=0
offset=3472
sample=Vibraphone_HardMallets_Staccato_P_F5_RR1.opus
volume=20
</region>

<region>
end=101369
hivel=24
key=F6
lovel=0
offset=26617
sample=Vibraphone_HardMallets_Staccato_P_F6_RR1.opus
volume=20
</region>

<region>
hivel=24
key=G#3
lovel=0
offset=3736
sample=Vibraphone_HardMallets_Staccato_P_G#3_RR1.opus
volume=20
</region>

<region>
hivel=24
key=G#4
lovel=0
offset=4979
sample=Vibraphone_HardMallets_Staccato_P_G#4_RR1.opus
volume=20
</region>

<region>
hivel=24
key=G#5
lovel=0
offset=5450
sample=Vibraphone_HardMallets_Staccato_P_G#5_RR1.opus
volume=20
</region>

<region>
hivel=24
key=G3
lovel=0
offset=5814
sample=Vibraphone_HardMallets_Staccato_P_G3_RR1.opus
volume=20
</region>

<region>
hivel=24
key=G4
lovel=0
offset=6095
sample=Vibraphone_HardMallets_Staccato_P_G4_RR1.opus
volume=20
</region>

<region>
hivel=24
key=G5
lovel=0
offset=3736
sample=Vibraphone_HardMallets_Staccato_P_G5_RR1.opus
volume=20
</region>
</group>
